# xmcd CD database file
#
# Track frame offsets:
#	150
#	13890
#	23530
#	34040
#	44012
#	70615
#	82010
#	110857
#	117855
#	131867
#
# Disc length: 2033 seconds
#
# Revision: 0
# Processed by: cddbd v1.5.1PL0 Copyright (c) Steve Scherf et al.
# Submitted via: CDex 1.40Release
#
DISCID=8807ef0a
DTITLE=Colorado - Makin' Friends
DYEAR=1997
DGENRE=Country
TTITLE0=Caledonia Star
TTITLE1=Millbank Cottage
TTITLE2=Hometown Again
TTITLE3=Don't Ask Me For A Reason
TTITLE4=The Green Fields Of France
TTITLE5=Misery River
TTITLE6=The Band Played Waltzing Matilda
TTITLE7=Coolies
TTITLE8=Makin' Friends
TTITLE9=Across The Hills Of Home
EXTD=YEAR: 1997 ID3G: 2
EXTT0=
EXTT1=
EXTT2=
EXTT3=
EXTT4=
EXTT5=
EXTT6=
EXTT7=
EXTT8=
EXTT9=
PLAYORDER=
